<svg width="38" height="9" viewBox="0 0 38 9" fill="none" xmlns="http://www.w3.org/2000/svg">
<path d="M22.045 7.1127C22.045 7.17706 22.0678 7.21432 22.1096 7.21432C22.1438 7.21093 22.1742 7.19738 22.2008 7.18045L34.044 0.328106C34.2442 0.203413 34.4839 0.139296 34.728 0.145197H37.3307C37.7296 0.145197 37.9994 0.382302 37.9994 0.73796V5.16844C37.9994 5.70362 37.8664 6.01524 37.3345 6.29977L34.177 7.99338C34.1456 8.01286 34.1088 8.02455 34.0706 8.02725C34.0326 8.02725 33.9947 8.00015 33.9947 7.90193V2.73303C33.9947 2.67206 33.9757 2.63141 33.9301 2.63141C33.8967 2.63484 33.8651 2.64658 33.8389 2.66529L25.1835 7.67837C24.9859 7.79692 24.7541 7.86128 24.5186 7.85789H18.7812C18.3785 7.85789 18.1125 7.62079 18.1125 7.26174V0.876836C18.1125 0.829415 18.0897 0.785381 18.0441 0.785381C18.0108 0.789145 17.9793 0.800848 17.9529 0.819253L12.2422 3.87452C12.1852 3.9084 12.17 3.93211 12.17 3.95582C12.17 3.97614 12.1814 3.99646 12.2194 4.03372L16.3001 7.66821C16.3533 7.71563 16.3913 7.75289 16.3913 7.79353C16.3913 7.82741 16.3305 7.8545 16.2583 7.8545H12.5727C12.284 7.8545 12.0598 7.81725 11.904 7.67837L9.43051 5.47668C9.42113 5.46668 9.40954 5.45851 9.39647 5.45269C9.38339 5.44686 9.36911 5.44349 9.35451 5.44281C9.32769 5.44391 9.30159 5.45089 9.27852 5.46313L5.1446 7.67837C4.89383 7.81386 4.72285 7.85112 4.47588 7.85112H0.672522C0.265969 7.8545 0 7.61401 0 7.25835V2.91255C0 2.37399 0.132985 2.06575 0.668722 1.78122L3.84515 0.0808394C3.87007 0.0662908 3.89898 0.0580918 3.92874 0.0571289C3.97814 0.0571289 4.00473 0.101163 4.00473 0.199392V6.01863C4.00473 6.0796 4.01993 6.1067 4.06933 6.1067C4.10352 6.10331 4.13392 6.08976 4.16432 6.07283L14.8943 0.317945C15.0994 0.192618 15.3502 0.131648 15.601 0.141809H21.3763C21.7753 0.141809 22.045 0.378915 22.045 0.734572L22.0412 7.1127H22.045Z" fill="#131E29"/>
</svg>
