<svg width="22" height="30" viewBox="0 0 22 30" fill="none" xmlns="http://www.w3.org/2000/svg">
<path d="M9.91877 0.754741C9.54726 1.44888 4.53932 10.8172 2.38214 14.8423C2.30737 14.9815 2.31312 15.0821 2.38616 15.2184C4.49964 19.1624 8.78296 27.1632 8.82724 27.2379C8.87152 27.1637 13.1548 19.1624 15.2683 15.219C15.3414 15.0827 15.3477 14.982 15.2723 14.8429C14.0629 12.5937 12.8615 10.3399 11.6521 8.09067C11.5745 7.9469 11.5693 7.83935 11.6498 7.69443C11.9822 7.09518 12.3008 6.48845 12.6378 5.8593C12.6856 5.94038 15.8906 11.9231 17.4623 14.8544C17.5284 14.9774 17.5342 15.0695 17.4663 15.1966C14.979 19.8382 12.4958 24.4821 10.0154 29.1277C9.94925 29.2519 9.88197 29.3083 9.73129 29.306C9.11709 29.2956 8.50231 29.2985 7.88811 29.3042C7.77424 29.3054 7.71385 29.2692 7.66037 29.1679C5.16733 24.4993 2.67198 19.8318 0.173766 15.1661C0.122007 15.0689 0.117407 14.9964 0.17089 14.8958C2.66968 10.2289 5.16445 5.5614 7.66325 0.89564C7.69488 0.83698 7.76906 0.761642 7.82427 0.761067C8.50979 0.751291 9.1953 0.754741 9.91877 0.754741Z" fill="black"/>
<path d="M12.7598 3.6129C11.6165 5.74363 8.46498 11.6303 6.74717 14.8365C6.67413 14.9734 6.66896 15.074 6.74372 15.2126C7.95315 17.4624 9.15452 19.7156 10.364 21.9648C10.4416 22.1091 10.4456 22.2161 10.3651 22.361C10.0327 22.9603 9.71409 23.567 9.37651 24.1967C9.33165 24.1208 6.12722 18.1375 4.55203 15.2005C4.48589 15.0774 4.48071 14.9854 4.54858 14.8583C7.03529 10.2173 9.51856 5.5734 11.999 0.927773C12.0657 0.802978 12.1335 0.747769 12.283 0.750069C12.8973 0.760421 13.512 0.757545 14.1262 0.751794C14.2407 0.750644 14.2999 0.788025 14.354 0.888667C16.8476 5.5573 19.3429 10.2248 21.8412 14.8905C21.8935 14.9877 21.8969 15.0608 21.8435 15.1608C19.3452 19.8266 16.8505 24.4941 14.3517 29.1598C14.32 29.2185 14.2459 29.2933 14.1906 29.2938C13.5051 29.303 12.8196 29.2996 12.1013 29.2996C12.1485 29.2076 17.1587 19.8306 19.6334 15.212C19.7081 15.0728 19.7024 14.9722 19.6288 14.8359C17.5153 10.8919 13.232 2.89115 13.1877 2.81697C13.1796 2.83077 13.0226 3.12234 12.7598 3.6129Z" fill="black"/>
</svg>
