<svg width="127" height="37" viewBox="0 0 127 37" fill="none" xmlns="http://www.w3.org/2000/svg">
<g clip-path="url(#clip0_8440_3248)">
<path d="M22.6432 4.6301C26.4324 12.8079 30.2522 20.9857 34.072 29.2237C34.1942 29.1034 34.2859 29.0132 34.3776 28.923C35.5082 27.2394 36.3333 25.4655 36.8833 23.5112C37.3723 21.7975 37.6167 20.0537 37.5556 18.3099C37.464 14.2811 36.1805 10.6131 33.7053 7.39613C32.2385 5.47194 30.4356 3.90853 28.3576 2.67585C26.738 1.71375 24.9962 0.962111 23.1016 0.571259C22.796 0.511128 22.4904 0.450997 22.1848 0.390866C21.9709 0.330735 21.8487 0.420932 21.757 0.601325C20.9625 2.13467 20.168 3.66801 19.3735 5.23141C17.9984 7.90725 16.6232 10.553 15.2787 13.2288C14.2397 15.2432 13.2007 17.2877 12.1617 19.3021C10.9394 21.6772 9.71708 24.0825 8.4642 26.4577C7.57801 28.2015 6.69182 29.9453 5.77507 31.6891C5.62228 31.9897 5.65284 32.1701 5.92786 32.3806C6.47791 32.8015 7.02796 33.2525 7.54745 33.6734C7.7308 33.8237 7.82247 33.7937 7.94471 33.5832C8.8309 31.8394 9.68653 30.0956 10.5727 28.3518C11.795 25.9165 13.0479 23.4511 14.2703 21.0158C15.4926 18.5504 16.7455 16.1151 17.9678 13.6498C19.2818 11.0641 20.5958 8.47849 21.8793 5.86279C22.0932 5.44187 22.2765 5.05102 22.4904 4.6301C22.5821 4.6301 22.6127 4.6301 22.6432 4.6301Z" fill="#262626"/>
<path d="M3.48377 29.3139C3.72823 28.8629 3.94214 28.442 4.18661 27.991C5.83675 24.7439 7.4869 21.4968 9.13704 18.2798C10.5733 15.4537 11.979 12.6275 13.4152 9.80136C14.8514 6.94514 16.3182 4.08891 17.7545 1.20262C17.9073 0.932033 18.06 0.631378 18.1823 0.360788C18.3045 0.0901986 18.2434 -0.0300635 17.9378 0.0300675C16.8072 0.180395 15.6459 0.270592 14.5153 0.511116C11.5511 1.14249 8.95369 2.46537 6.63126 4.3595C4.30884 6.25363 2.56702 8.59874 1.37525 11.3347C0.672409 12.9582 0.214036 14.6419 0.000128329 16.3857C-0.183221 18.1596 -0.183221 19.9034 0.122361 21.6772C0.519618 24.0224 1.34469 26.1871 2.56702 28.2015C2.75037 28.5322 2.96428 28.8328 3.17818 29.1335C3.2393 29.2237 3.26986 29.3139 3.30042 29.4041C3.39209 29.374 3.45321 29.344 3.48377 29.3139Z" fill="#262626"/>
<path d="M30.8962 31.4786C30.01 29.5845 29.1239 27.6603 28.2377 25.7361H15.7394C15.006 27.1792 14.242 28.6224 13.5392 30.0956C12.7446 31.6891 12.0112 33.3126 11.2473 34.9361C11.0334 35.3871 11.0945 35.4472 11.5529 35.5976C12.5307 35.8982 13.478 36.259 14.4865 36.4695C16.32 36.8904 18.184 37.0107 20.0786 36.8002C20.9342 36.71 21.7899 36.6499 22.615 36.4394C23.8373 36.1087 25.0596 35.6878 26.2514 35.1767C27.9321 34.4551 29.3989 33.4028 30.7434 32.2302C30.9573 31.9596 31.049 31.8093 30.8962 31.4786Z" fill="#C2C2C4"/>
<path d="M26.7084 22.3987C26.0361 20.8955 25.3332 19.4223 24.661 17.919C23.9581 16.4157 23.2858 14.9425 22.583 13.4392C22.5219 13.2889 22.4302 13.1386 22.308 12.9281C22.0024 13.4993 21.7579 13.9804 21.5135 14.4614C21.269 14.9425 21.0245 15.4536 20.7495 15.9347C19.6494 18.0994 18.5493 20.2641 17.4492 22.3987H26.7084Z" fill="#CA0100"/>
<path d="M51.1549 9.41162C51.766 9.41162 52.1327 9.59201 52.4994 10.2835L56.3803 17.2287C56.472 17.379 56.4415 17.4992 56.2275 17.4992H54.7302C54.5774 17.4992 54.5163 17.4692 54.4552 17.3489L53.6301 15.8456H48.0991L47.274 17.3489C47.2129 17.4692 47.1518 17.4992 46.999 17.4992H45.471C45.2571 17.4992 45.2266 17.379 45.3183 17.2287L49.1686 10.2835C49.5658 9.59201 49.902 9.41162 50.3909 9.41162H51.1549ZM48.863 14.5228H52.8967L51.0326 11.1254C51.0021 11.0652 50.9715 11.0352 50.9104 11.0352H50.8493C50.7882 11.0352 50.7576 11.0652 50.7271 11.1254L48.863 14.5228Z" fill="#262626"/>
<path d="M64.51 9.41056C66.1296 9.41056 66.7407 10.0419 66.7407 11.3047V11.8459C66.7407 12.5073 66.4963 12.9884 65.9768 13.3191C66.5268 13.6197 66.8019 14.1308 66.8019 14.8224V15.4838C66.8019 16.7165 66.2824 17.4982 64.7239 17.4982H57.7261C57.4816 17.4982 57.3594 17.3779 57.3594 17.1374V9.74128C57.3594 9.50076 57.4816 9.38049 57.7261 9.38049H64.51V9.41056ZM59.1929 12.7779H64.0211C64.785 12.7779 65.0295 12.5374 65.0295 12.0864V11.6955C65.0295 11.2145 64.785 11.004 64.1739 11.004H59.3762C59.2845 11.004 59.2234 11.0642 59.2234 11.1544L59.1929 12.7779ZM59.1929 14.0406V15.7544C59.1929 15.8446 59.254 15.9047 59.3457 15.9047H64.1739C64.785 15.9047 65.0295 15.6943 65.0295 15.2132V14.7622C65.0295 14.2812 64.785 14.0406 64.0211 14.0406H59.1929Z" fill="#262626"/>
<path d="M76.6728 9.41056C76.8561 9.41056 76.9173 9.50075 76.9173 9.65108V10.7936C76.9173 10.974 76.8256 11.0642 76.6728 11.0642H71.4473C70.225 11.0642 69.8889 11.4249 69.8889 12.6276V14.2812C69.8889 15.5139 70.2556 15.8746 71.4473 15.8746H76.6728C76.8561 15.8746 76.9173 15.9648 76.9173 16.1152V17.2577C76.9173 17.4381 76.8256 17.4982 76.6728 17.4982H71.3862C69.0027 17.4982 68.0859 16.6563 68.0859 14.4315V12.4472C68.0859 10.2223 69.0027 9.38049 71.3862 9.38049L76.6728 9.41056Z" fill="#262626"/>
<path d="M87.3658 9.41064C87.977 9.41064 88.3437 9.59104 88.7104 10.2825L92.5913 17.2277C92.683 17.378 92.6524 17.4983 92.4385 17.4983H90.9411C90.7884 17.4983 90.7272 17.4682 90.6661 17.3479L89.8411 15.8447H84.31L83.4849 17.3479C83.4238 17.4682 83.3627 17.4983 83.2099 17.4983H81.682C81.4681 17.4983 81.4375 17.378 81.5292 17.2277L85.4407 10.3126C85.8379 9.6211 86.1741 9.44071 86.663 9.44071H87.3658V9.41064ZM85.074 14.5218H89.1077L87.2436 11.1244C87.213 11.0642 87.1825 11.0342 87.1214 11.0342H87.0602C86.9991 11.0342 86.9686 11.0642 86.938 11.1244L85.074 14.5218Z" fill="#262626"/>
<path d="M94.6398 9.41064C94.8232 9.41064 94.8843 9.50084 94.8843 9.65117V14.2813C94.8843 15.5139 95.251 15.8747 96.4427 15.8747H99.7125C100.935 15.8747 101.271 15.5139 101.271 14.2813V9.65117C101.271 9.47078 101.363 9.41064 101.515 9.41064H102.799C102.982 9.41064 103.043 9.50084 103.043 9.65117V14.4316C103.043 16.6564 102.127 17.4983 99.743 17.4983H96.3511C93.9675 17.4983 93.0508 16.6564 93.0508 14.4316V9.65117C93.0508 9.47078 93.1425 9.41064 93.3258 9.41064H94.6398Z" fill="#262626"/>
<path d="M113.556 9.41064C113.739 9.41064 113.831 9.50084 113.831 9.65117V10.7937C113.831 10.9741 113.739 11.0642 113.556 11.0642H109.858V17.2577C109.858 17.4381 109.767 17.4983 109.614 17.4983H108.33C108.147 17.4983 108.086 17.4081 108.086 17.2577V11.0642H104.388C104.205 11.0642 104.113 10.9741 104.113 10.7937V9.65117C104.113 9.47078 104.205 9.41064 104.388 9.41064H113.556Z" fill="#262626"/>
<path d="M121.468 9.41064C123.852 9.41064 124.768 10.2525 124.768 12.4773V14.4617C124.768 16.6865 123.852 17.5283 121.468 17.5283H117.832C115.448 17.5283 114.531 16.6865 114.531 14.4617V12.4773C114.531 10.2525 115.448 9.41064 117.832 9.41064H121.468ZM116.334 14.3414C116.334 15.544 116.701 15.9048 117.893 15.9048H121.376C122.599 15.9048 122.935 15.544 122.935 14.3414V12.5976C122.935 11.395 122.568 11.0342 121.376 11.0342H117.893C116.67 11.0342 116.334 11.395 116.334 12.5976V14.3414Z" fill="#262626"/>
<path d="M48.8642 22.8197C49.9948 22.8197 50.3921 23.2106 50.3921 24.2628V25.1949C50.3921 26.2472 49.9643 26.638 48.8642 26.638H47.1529C46.0528 26.638 45.625 26.2472 45.625 25.1949V24.2628C45.625 23.2106 46.0528 22.8197 47.1529 22.8197H48.8642ZM46.4806 25.1347C46.4806 25.706 46.6334 25.8563 47.214 25.8563H48.8336C49.4142 25.8563 49.567 25.6759 49.567 25.1347V24.323C49.567 23.7517 49.4142 23.6014 48.8336 23.6014H47.214C46.6334 23.6014 46.4806 23.7818 46.4806 24.323V25.1347Z" fill="#737373"/>
<path d="M53.7243 22.5491C53.816 22.5491 53.8465 22.5791 53.8465 22.6693V23.6314H54.5493C55.5272 23.6314 55.8634 23.9321 55.8634 24.7439V25.5256C55.8634 26.3073 55.5578 26.6079 54.5493 26.6079H53.8465V27.6903C53.8465 27.7805 53.816 27.8105 53.7243 27.8105H53.1742C53.0826 27.8105 53.052 27.7805 53.052 27.6903V26.6079H52.3492C51.3713 26.6079 51.0352 26.3073 51.0352 25.5256V24.7439C51.0352 23.9622 51.3407 23.6314 52.3492 23.6314H53.052V22.6693C53.052 22.5791 53.0826 22.5491 53.1742 22.5491H53.7243ZM51.8297 25.4053C51.8297 25.8563 51.9519 26.0066 52.4408 26.0066H53.0826V24.2929H52.4408C51.9825 24.2929 51.8297 24.4432 51.8297 24.8942V25.4053ZM53.8465 24.2929V26.0066H54.4882C54.9772 26.0066 55.0994 25.8563 55.0994 25.4053V24.8942C55.0994 24.4432 54.9772 24.2929 54.4882 24.2929H53.8465Z" fill="#737373"/>
<path d="M57.1449 23.6615C57.2366 23.6615 57.2672 23.6916 57.2672 23.7818V25.8563C57.2672 25.8864 57.2977 25.9164 57.2977 25.9164H57.3588C57.3894 25.9164 57.42 25.9164 57.42 25.8864L59.0701 23.9922C59.2535 23.7517 59.3757 23.6615 59.7424 23.6615H60.048C60.3841 23.6615 60.5369 23.7818 60.5369 24.2327V26.5177C60.5369 26.6079 60.5063 26.638 60.4147 26.638H59.8646C59.7729 26.638 59.7424 26.6079 59.7424 26.5177V24.4432C59.7424 24.4131 59.7424 24.3831 59.7118 24.3831H59.6507C59.6202 24.3831 59.5896 24.3831 59.5896 24.4131L57.9395 26.3073C57.7255 26.5478 57.6339 26.638 57.2672 26.638H56.9616C56.6254 26.638 56.4727 26.5177 56.4727 26.0667V23.7818C56.4727 23.6916 56.5032 23.6615 56.5949 23.6615H57.1449Z" fill="#737373"/>
<path d="M61.9113 23.6615C62.0029 23.6615 62.0335 23.6916 62.0335 23.7818V25.8863C62.0335 25.9765 62.064 26.0066 62.1557 26.0066H64.5393V23.8118C64.5393 23.7216 64.5698 23.6916 64.6615 23.6916H65.2115C65.3032 23.6916 65.3338 23.7216 65.3338 23.8118V26.0066H66.0672C66.1589 26.0066 66.1894 26.0367 66.1894 26.1269V27.54C66.1894 27.6301 66.1589 27.6602 66.0672 27.6602H65.6394C65.5477 27.6602 65.5171 27.6301 65.5171 27.54V26.638H61.789C61.4223 26.638 61.2695 26.4877 61.2695 26.187V23.8118C61.2695 23.7216 61.3001 23.6916 61.3918 23.6916L61.9113 23.6615Z" fill="#737373"/>
<path d="M67.3214 23.6615C67.4131 23.6615 67.4436 23.6916 67.4436 23.7818V25.8563C67.4436 25.8864 67.4742 25.9164 67.4742 25.9164H67.5353C67.5659 25.9164 67.5964 25.9164 67.5964 25.8864L69.2466 23.9922C69.4299 23.7517 69.5522 23.6615 69.9189 23.6615H70.2244C70.5606 23.6615 70.7134 23.7818 70.7134 24.2327V26.5177C70.7134 26.6079 70.6828 26.638 70.5911 26.638H70.0411C69.9494 26.638 69.9189 26.6079 69.9189 26.5177V24.4432C69.9189 24.4131 69.9189 24.3831 69.8883 24.3831H69.8577C69.8272 24.3831 69.7966 24.3831 69.7966 24.4131L68.1465 26.3073C67.9326 26.5478 67.8409 26.638 67.4742 26.638H67.1686C66.8325 26.638 66.6797 26.5177 66.6797 26.0667V23.7818C66.6797 23.6916 66.7102 23.6615 66.8019 23.6615H67.3214Z" fill="#737373"/>
<path d="M73.8599 23.6615C74.8377 23.6615 75.1739 23.9622 75.1739 24.7739V26.2171C75.1739 26.5779 75.0822 26.638 74.7766 26.638H72.1486C71.5069 26.638 71.293 26.3975 71.293 25.8563V25.5857C71.293 25.1347 71.4763 24.8641 72.1486 24.8641H74.3793V24.7739C74.3793 24.4131 74.2571 24.2929 73.7682 24.2929H71.4763C71.4152 24.2929 71.3846 24.2628 71.3846 24.2027V23.7517C71.3846 23.6916 71.4152 23.6615 71.4763 23.6615H73.8599ZM74.3793 25.8262V25.3452H72.3625C72.1486 25.3452 72.0569 25.4354 72.0569 25.6158V25.736C72.0569 25.9164 72.1486 26.0066 72.3625 26.0066H74.2266C74.3488 26.0367 74.3793 25.9765 74.3793 25.8262Z" fill="#737373"/>
<path d="M79.1183 23.6615C79.4544 23.6615 79.5767 23.8119 79.5767 24.0825V26.4877C79.5767 26.5779 79.5461 26.608 79.4544 26.608H78.9044C78.8127 26.608 78.7821 26.5779 78.7821 26.4877V24.4132C78.7821 24.353 78.7516 24.323 78.6905 24.323H77.4987C77.3765 24.323 77.3765 24.3831 77.3459 24.4432C77.2848 24.7439 77.1931 25.6158 76.9792 26.0968C76.8264 26.4276 76.6431 26.608 76.1847 26.608H75.6652C75.6041 26.608 75.543 26.5779 75.543 26.4877V26.0968C75.543 26.0066 75.5735 25.9766 75.6652 25.9766H76.0625C76.2152 25.9766 76.3375 25.9465 76.4597 25.6459C76.582 25.3452 76.6736 24.804 76.7653 23.9923C76.7959 23.7818 76.8875 23.6315 77.2237 23.6315H79.1183V23.6615Z" fill="#737373"/>
<path d="M80.9184 23.6615C81.01 23.6615 81.0406 23.6916 81.0406 23.7818V24.5635H83.1186C83.8825 24.5635 84.1881 24.8641 84.1881 25.4053V25.7661C84.1881 26.3373 83.8825 26.6079 83.1186 26.6079H80.3989C80.3072 26.6079 80.2461 26.5478 80.2461 26.4576V23.7818C80.2461 23.6916 80.2767 23.6615 80.3683 23.6615H80.9184ZM81.0406 25.1347V25.9465C81.0406 25.9765 81.0712 26.0066 81.1017 26.0066H82.9658C83.3019 26.0066 83.4241 25.8864 83.4241 25.6759V25.4654C83.4241 25.2249 83.3019 25.1347 82.9658 25.1347H81.0406Z" fill="#737373"/>
<path d="M85.4731 23.6615C85.5647 23.6615 85.5953 23.6916 85.5953 23.7818V24.804H88.1011V23.7818C88.1011 23.6916 88.1316 23.6615 88.2233 23.6615H88.7734C88.865 23.6615 88.8956 23.6916 88.8956 23.7818V26.5177C88.8956 26.6079 88.865 26.638 88.7734 26.638H88.2233C88.1316 26.638 88.1011 26.6079 88.1011 26.5177V25.4354H85.5953V26.5177C85.5953 26.6079 85.5647 26.638 85.4731 26.638H84.923C84.8313 26.638 84.8008 26.6079 84.8008 26.5177V23.7818C84.8008 23.6916 84.8313 23.6615 84.923 23.6615H85.4731Z" fill="#737373"/>
<path d="M90.2387 23.6615C90.3304 23.6615 90.3609 23.6916 90.3609 23.7818V24.5635H92.4389C93.2028 24.5635 93.5084 24.8641 93.5084 25.4053V25.7661C93.5084 26.3373 93.2028 26.6079 92.4389 26.6079H89.7192C89.6275 26.6079 89.5664 26.5478 89.5664 26.4576V23.7818C89.5664 23.6916 89.597 23.6615 89.6886 23.6615H90.2387ZM90.3609 25.1347V25.9465C90.3609 25.9765 90.3915 26.0066 90.422 26.0066H92.2861C92.6222 26.0066 92.7445 25.8864 92.7445 25.6759V25.4654C92.7445 25.2249 92.6222 25.1347 92.2861 25.1347H90.3609ZM94.6085 23.6615C94.7002 23.6615 94.7308 23.6916 94.7308 23.7818V26.5177C94.7308 26.6079 94.7002 26.638 94.6085 26.638H94.0585C93.9668 26.638 93.9362 26.6079 93.9362 26.5177V23.7818C93.9362 23.6916 93.9668 23.6615 94.0585 23.6615H94.6085Z" fill="#737373"/>
<path d="M96.0785 23.6615C96.1702 23.6615 96.2008 23.6916 96.2008 23.7818V25.8563C96.2008 25.8864 96.2313 25.9165 96.2313 25.9165H96.2924C96.323 25.9165 96.3535 25.9165 96.3535 25.8864L98.0037 23.9923C98.187 23.7517 98.3093 23.6615 98.676 23.6615H98.9816C99.3177 23.6615 99.4705 23.7818 99.4705 24.2328V26.5178C99.4705 26.608 99.4399 26.638 99.3483 26.638H98.7982C98.7065 26.638 98.676 26.608 98.676 26.5178V24.4432C98.676 24.4132 98.676 24.3831 98.6454 24.3831H98.5843C98.5537 24.3831 98.5232 24.3831 98.5232 24.4132L96.873 26.3073C96.6591 26.5478 96.5675 26.638 96.2008 26.638H95.8952C95.559 26.638 95.4062 26.5178 95.4062 26.0668V23.7818C95.4062 23.6916 95.4368 23.6615 95.5285 23.6615H96.0785ZM96.1396 22.4289C96.1396 22.3687 96.1702 22.3086 96.2313 22.3086C96.2619 22.3086 96.323 22.3387 96.3841 22.3687C96.5063 22.4589 96.9036 22.7896 97.4536 22.7896C98.0037 22.7896 98.4009 22.4589 98.5232 22.3687C98.5843 22.3387 98.6149 22.3086 98.6454 22.3086C98.7065 22.3086 98.7371 22.3687 98.7371 22.4289V22.6994C98.7371 22.7896 98.7371 22.8498 98.6454 22.9099C98.4621 23.0602 97.9426 23.3008 97.4231 23.3008C96.9036 23.3008 96.4147 23.0903 96.2008 22.9099C96.1091 22.8197 96.0785 22.7596 96.0785 22.6994V22.4289H96.1396Z" fill="#737373"/>
<path d="M105.487 23.6615C105.823 23.6615 105.946 23.8119 105.946 24.0825V25.9766H106.679C106.771 25.9766 106.801 26.0067 106.801 26.0968V27.5099C106.801 27.6001 106.771 27.6302 106.679 27.6302H106.221C106.129 27.6302 106.098 27.6001 106.098 27.5099V26.608H102.493V27.5099C102.493 27.6001 102.462 27.6302 102.37 27.6302H101.943C101.851 27.6302 101.82 27.6001 101.82 27.5099V26.0968C101.82 26.0067 101.851 25.9766 101.943 25.9766H102.401C102.554 25.9766 102.676 25.9465 102.798 25.6459C102.92 25.3452 103.012 24.804 103.104 23.9923C103.134 23.7818 103.226 23.6315 103.562 23.6315H105.487V23.6615ZM105.151 25.9766V24.4132C105.151 24.353 105.121 24.323 105.059 24.323H103.868C103.745 24.323 103.745 24.3831 103.715 24.4432C103.684 24.7439 103.562 25.4655 103.409 25.9766H105.151Z" fill="#737373"/>
<path d="M107.934 23.6615C108.026 23.6615 108.056 23.6916 108.056 23.7818V25.8563C108.056 25.8864 108.087 25.9164 108.087 25.9164H108.148C108.178 25.9164 108.209 25.9164 108.209 25.8864L109.859 23.9922C110.043 23.7517 110.165 23.6615 110.531 23.6615H110.837C111.173 23.6615 111.326 23.7818 111.326 24.2327V26.5177C111.326 26.6079 111.295 26.638 111.204 26.638H110.654C110.562 26.638 110.531 26.6079 110.531 26.5177V24.4432C110.531 24.4131 110.531 24.3831 110.501 24.3831H110.44C110.409 24.3831 110.379 24.3831 110.379 24.4131L108.729 26.3073C108.515 26.5478 108.423 26.638 108.056 26.638H107.751C107.415 26.638 107.262 26.5177 107.262 26.0667V23.7818C107.262 23.6916 107.292 23.6615 107.384 23.6615H107.934Z" fill="#737373"/>
<path d="M115.36 23.6615C115.697 23.6615 115.819 23.8119 115.819 24.0825V26.4877C115.819 26.5779 115.788 26.608 115.697 26.608H115.147C115.055 26.608 115.024 26.5779 115.024 26.4877V24.4132C115.024 24.353 114.994 24.323 114.933 24.323H113.741C113.619 24.323 113.619 24.3831 113.588 24.4432C113.527 24.7439 113.435 25.6158 113.221 26.0968C113.069 26.4276 112.885 26.608 112.427 26.608H111.907C111.846 26.608 111.785 26.5779 111.785 26.4877V26.0968C111.785 26.0066 111.816 25.9766 111.907 25.9766H112.305C112.457 25.9766 112.58 25.9465 112.702 25.6459C112.824 25.3452 112.916 24.804 113.007 23.9923C113.038 23.7818 113.13 23.6315 113.466 23.6315H115.36V23.6615Z" fill="#737373"/>
<path d="M119.332 23.6615C120.096 23.6615 120.279 23.9021 120.279 24.5635V25.0746C120.279 25.3151 120.188 25.3753 119.974 25.3753H117.193V25.4955C117.193 25.8263 117.315 25.9766 117.804 25.9766H120.096C120.157 25.9766 120.188 26.0066 120.188 26.0668V26.5178C120.188 26.5779 120.157 26.608 120.096 26.608H117.712C116.735 26.608 116.398 26.3073 116.398 25.5256V24.7439C116.398 23.9622 116.704 23.6315 117.712 23.6315L119.332 23.6615ZM117.193 24.8642H119.424C119.485 24.8642 119.515 24.8341 119.515 24.774V24.5334C119.515 24.323 119.424 24.2328 119.179 24.2328H117.804C117.315 24.2328 117.193 24.3831 117.193 24.7138V24.8642Z" fill="#737373"/>
<path d="M123.701 23.6615C124.679 23.6615 125.015 23.9622 125.015 24.774V25.5557C125.015 26.3374 124.709 26.638 123.701 26.638H121.623V27.7204C121.623 27.8106 121.592 27.8406 121.5 27.8406H120.95C120.859 27.8406 120.828 27.8106 120.828 27.7204V24.7439C120.828 23.9622 121.134 23.6315 122.142 23.6315L123.701 23.6615ZM121.623 25.9766H123.609C124.098 25.9766 124.22 25.8263 124.22 25.3753V24.8942C124.22 24.4432 124.098 24.2929 123.609 24.2929H122.234C121.775 24.2929 121.623 24.4432 121.623 24.8942V25.9766Z" fill="#737373"/>
</g>
<defs>
<clipPath id="clip0_8440_3248">
<rect width="127" height="36.8904" fill="white"/>
</clipPath>
</defs>
</svg>
